<svg width="26" height="24" viewBox="0 0 26 24" fill="none" xmlns="http://www.w3.org/2000/svg">
<path fill-rule="evenodd" clip-rule="evenodd" d="M0 2.66667C0 1.95942 0.273928 1.28115 0.761522 0.781048C1.24912 0.280951 1.91044 0 2.6 0H9.776C10.1657 4.98636e-05 10.5504 0.0899449 10.9017 0.263038C11.2529 0.43613 11.5617 0.687993 11.8053 1L13.6253 3.33333H23.4C24.0896 3.33333 24.7509 3.61428 25.2385 4.11438C25.7261 4.61448 26 5.29276 26 6V21.3333C26 22.0406 25.7261 22.7189 25.2385 23.219C24.7509 23.719 24.0896 24 23.4 24H2.6C1.91044 24 1.24912 23.719 0.761522 23.219C0.273928 22.7189 0 22.0406 0 21.3333V2.66667ZM13 8C13.3448 8 13.6754 8.14048 13.9192 8.39052C14.163 8.64057 14.3 8.97971 14.3 9.33333V12H16.9C17.2448 12 17.5754 12.1405 17.8192 12.3905C18.063 12.6406 18.2 12.9797 18.2 13.3333C18.2 13.687 18.063 14.0261 17.8192 14.2761C17.5754 14.5262 17.2448 14.6667 16.9 14.6667H14.3V17.3333C14.3 17.687 14.163 18.0261 13.9192 18.2761C13.6754 18.5262 13.3448 18.6667 13 18.6667C12.6552 18.6667 12.3246 18.5262 12.0808 18.2761C11.837 18.0261 11.7 17.687 11.7 17.3333V14.6667H9.1C8.75522 14.6667 8.42456 14.5262 8.18076 14.2761C7.93696 14.0261 7.8 13.687 7.8 13.3333C7.8 12.9797 7.93696 12.6406 8.18076 12.3905C8.42456 12.1405 8.75522 12 9.1 12H11.7V9.33333C11.7 8.97971 11.837 8.64057 12.0808 8.39052C12.3246 8.14048 12.6552 8 13 8Z" fill="#2B85FF"/>
</svg>
