<svg width="28" height="24" viewBox="0 0 28 24" fill="none" xmlns="http://www.w3.org/2000/svg">
<path d="M26.25 0H1.75C1.28587 0 0.840752 0.180612 0.512563 0.502103C0.184374 0.823593 0 1.25963 0 1.71429V22.2857C0 22.7404 0.184374 23.1764 0.512563 23.4979C0.840752 23.8194 1.28587 24 1.75 24H26.25C26.7141 24 27.1593 23.8194 27.4874 23.4979C27.8156 23.1764 28 22.7404 28 22.2857V1.71429C28 1.25963 27.8156 0.823593 27.4874 0.502103C27.1593 0.180612 26.7141 0 26.25 0ZM6.055 3.42857C6.57418 3.42857 7.08169 3.57938 7.51337 3.86194C7.94505 4.14449 8.2815 4.54609 8.48018 5.01596C8.67886 5.48582 8.73085 6.00285 8.62956 6.50166C8.52828 7.00047 8.27827 7.45865 7.91116 7.81827C7.54404 8.1779 7.07631 8.4228 6.56711 8.52202C6.05791 8.62124 5.53011 8.57032 5.05046 8.37569C4.5708 8.18107 4.16083 7.85148 3.87239 7.42861C3.58395 7.00574 3.43 6.50858 3.43 6C3.43 5.31801 3.70656 4.66396 4.19884 4.18173C4.69113 3.69949 5.35881 3.42857 6.055 3.42857ZM3.5 19.7143V16.2L8.75 10.9886C8.91394 10.8289 9.13571 10.7393 9.36687 10.7393C9.59804 10.7393 9.81981 10.8289 9.98375 10.9886L12.25 13.1571L5.53 19.7143H3.5ZM24.5 19.7143H8.00625L13.4575 14.3743L18.1825 9.74571C18.3464 9.58607 18.5682 9.49646 18.7994 9.49646C19.0305 9.49646 19.2523 9.58607 19.4163 9.74571L24.5 14.7257V19.7143Z" fill="#2B85FF"/>
</svg>
