<svg width="24" height="18" viewBox="0 0 24 18" fill="none" xmlns="http://www.w3.org/2000/svg">
<path d="M1 0.5C0.723858 0.5 0.5 0.723858 0.5 1C0.5 1.27614 0.723858 1.5 1 1.5H20.6491C20.9252 1.5 21.1491 1.27614 21.1491 1C21.1491 0.723858 20.9252 0.5 20.6491 0.5H1ZM1 8.49999C0.723858 8.49999 0.5 8.72385 0.5 8.99999C0.5 9.27613 0.723858 9.49999 1 9.49999H9.28073C9.55687 9.49999 9.78073 9.27613 9.78073 8.99999C9.78073 8.72385 9.55687 8.49999 9.28073 8.49999H1ZM1 16.5C0.723858 16.5 0.5 16.7238 0.5 17C0.5 17.2761 0.723858 17.5 1 17.5H8.85964C9.13578 17.5 9.35964 17.2761 9.35964 17C9.35964 16.7238 9.13578 16.5 8.85964 16.5H1Z" stroke="#929292" stroke-linecap="round" stroke-linejoin="round"/>
<path d="M17.9696 17.0072C17.9706 17.076 17.9855 17.1414 18.0115 17.2008M17.9696 17.0072C17.9696 17.0048 17.9696 17.0024 17.9696 17V16.9983C17.9696 17.0013 17.9696 17.0043 17.9696 17.0072ZM15.7498 4.4033C15.7498 4.39748 15.7497 4.39167 15.7495 4.3859C15.7543 4.24542 15.7002 4.10374 15.5888 4.00095C15.3859 3.81368 15.0696 3.82639 14.8823 4.02933L11.0185 8.21659C10.8313 8.41954 10.844 8.73586 11.0469 8.92313C11.2499 9.1104 11.5662 9.09769 11.7534 8.89474L14.7498 5.64757V16.9651C14.7498 17.2412 14.9736 17.4651 15.2498 17.4651C15.5259 17.4651 15.7498 17.2412 15.7498 16.9651V4.4033Z" stroke="#929292" stroke-linecap="round" stroke-linejoin="round"/>
</svg>
