<svg width="34" height="32" viewBox="0 0 34 32" fill="none" xmlns="http://www.w3.org/2000/svg">
<path d="M16.1845 27.1053H4.76346C3.89802 27.1053 3.06802 26.7615 2.45606 26.1495C1.8441 25.5375 1.50031 24.7075 1.50031 23.8421V9.15789C1.50031 8.29245 1.8441 7.46245 2.45606 6.85049C3.06802 6.23853 3.89802 5.89474 4.76346 5.89474H6.39504C7.26049 5.89474 8.09048 5.55094 8.70244 4.93898C9.3144 4.32702 9.6582 3.49702 9.6582 2.63158C9.6582 2.19886 9.8301 1.78386 10.1361 1.47788C10.4421 1.1719 10.8571 1 11.2898 1H21.0793C21.512 1 21.927 1.1719 22.233 1.47788C22.5389 1.78386 22.7108 2.19886 22.7108 2.63158C22.7108 3.49702 23.0546 4.32702 23.6666 4.93898C24.2785 5.55094 25.1085 5.89474 25.974 5.89474H27.6056C28.471 5.89474 29.301 6.23853 29.913 6.85049C30.5249 7.46245 30.8687 8.29245 30.8687 9.15789V14.8684" stroke="#2B85FF" stroke-width="2" stroke-linecap="round" stroke-linejoin="round"/>
<path d="M27.6056 30.368V20.5785M27.6056 20.5785L32.5004 25.4733M27.6056 20.5785L22.7109 25.4733M16.1846 20.5785C17.4828 20.5785 18.7278 20.0628 19.6457 19.1449C20.5636 18.227 21.0793 16.982 21.0793 15.6838C21.0793 14.3856 20.5636 13.1406 19.6457 12.2227C18.7278 11.3048 17.4828 10.7891 16.1846 10.7891C14.8864 10.7891 13.6414 11.3048 12.7235 12.2227C11.8055 13.1406 11.2899 14.3856 11.2899 15.6838C11.2899 16.982 11.8055 18.227 12.7235 19.1449C13.6414 20.0628 14.8864 20.5785 16.1846 20.5785Z" stroke="#2B85FF" stroke-width="2" stroke-linecap="round" stroke-linejoin="round"/>
</svg>
