<svg width="30" height="30" viewBox="0 0 30 30" fill="none" xmlns="http://www.w3.org/2000/svg">
<path d="M24.4299 1.64645L24.0763 1.29282L23.7227 1.64652L20.3502 5.02052L19.9968 5.37408L20.3503 5.72755L24.7742 10.1515L25.1279 10.5051L25.4814 10.1514L28.8539 6.77743L29.2073 6.42387L28.8539 6.0704L24.4299 1.64645ZM7.37291 22.6274V23.1274H7.87291H12.2969H12.504L12.6504 22.981L23.3962 12.2352L23.7497 11.8816L23.3962 11.5281L18.9722 7.10413L18.6187 6.75057L18.2651 7.10413L7.51936 17.8499L7.37291 17.9963V18.2035V22.6274Z" stroke="black"/>
<path d="M24.0942 27.0509H8.106C8.06766 27.0509 8.02784 27.0657 7.9895 27.0657C7.94084 27.0657 7.89218 27.0524 7.84204 27.0509H3.44906V6.40584H13.546L16.4953 3.45654H3.44906C1.82252 3.45654 0.499756 4.77783 0.499756 6.40584V27.0509C0.499756 28.679 1.82252 30.0002 3.44906 30.0002H24.0942C24.8764 30.0002 25.6265 29.6895 26.1796 29.1364C26.7327 28.5833 27.0435 27.8331 27.0435 27.0509V14.2687L24.0942 17.218V27.0509Z" fill="black"/>
</svg>
