<svg width="7" height="28" viewBox="0 0 7 28" fill="none" xmlns="http://www.w3.org/2000/svg">
<path d="M3.50031 0.5C2.08723 0.5 1.00031 1.73729 1.00031 3.16667C1.00031 4.59604 2.08723 5.83333 3.50031 5.83333C4.91338 5.83333 6.00031 4.59604 6.00031 3.16667C6.00031 1.73729 4.91338 0.5 3.50031 0.5ZM3.50031 22.1667C2.08723 22.1667 1.00031 23.404 1.00031 24.8333C1.00031 26.2627 2.08723 27.5 3.50031 27.5C4.91338 27.5 6.00031 26.2627 6.00031 24.8333C6.00031 23.404 4.91338 22.1667 3.50031 22.1667ZM3.50031 11.3333C2.08723 11.3333 1.00031 12.5706 1.00031 14C1.00031 15.4294 2.08723 16.6667 3.50031 16.6667C4.91338 16.6667 6.00031 15.4294 6.00031 14C6.00031 12.5706 4.91338 11.3333 3.50031 11.3333Z" fill="black" stroke="black"/>
</svg>
