<svg width="27" height="32" viewBox="0 0 27 32" fill="none" xmlns="http://www.w3.org/2000/svg">
<path d="M9.66699 15.6996C9.66699 16.7825 9.23678 17.8211 8.471 18.5869C7.70523 19.3527 6.66661 19.7829 5.58365 19.7829C4.50068 19.7829 3.46206 19.3527 2.69629 18.5869C1.93051 17.8211 1.50031 16.7825 1.50031 15.6996C1.50031 14.6166 1.93051 13.578 2.69629 12.8122C3.46206 12.0464 4.50068 11.6162 5.58365 11.6162C6.66661 11.6162 7.70523 12.0464 8.471 12.8122C9.23678 13.578 9.66699 14.6166 9.66699 15.6996Z" stroke="black" stroke-width="2"/>
<path d="M17.8336 6.7168L9.66696 12.4335M17.8336 24.6835L9.66696 18.9668" stroke="black" stroke-width="2" stroke-linecap="round"/>
<path d="M26.0003 26.3167C26.0003 27.3997 25.5701 28.4383 24.8043 29.2041C24.0386 29.9698 23 30.4 21.917 30.4C20.834 30.4 19.7954 29.9698 19.0296 29.2041C18.2639 28.4383 17.8336 27.3997 17.8336 26.3167C17.8336 25.2337 18.2639 24.1951 19.0296 23.4293C19.7954 22.6636 20.834 22.2334 21.917 22.2334C23 22.2334 24.0386 22.6636 24.8043 23.4293C25.5701 24.1951 26.0003 25.2337 26.0003 26.3167ZM26.0003 5.08334C26.0003 6.16631 25.5701 7.20492 24.8043 7.9707C24.0386 8.73647 23 9.16668 21.917 9.16668C20.834 9.16668 19.7954 8.73647 19.0296 7.9707C18.2639 7.20492 17.8336 6.16631 17.8336 5.08334C17.8336 4.00037 18.2639 2.96176 19.0296 2.19598C19.7954 1.43021 20.834 1 21.917 1C23 1 24.0386 1.43021 24.8043 2.19598C25.5701 2.96176 26.0003 4.00037 26.0003 5.08334Z" stroke="black" stroke-width="2"/>
</svg>
