<svg width="40" height="32" viewBox="0 0 40 32" fill="none" xmlns="http://www.w3.org/2000/svg">
<path d="M29.5745 17.1112C29.5745 20.258 27.0851 22.6644 23.8298 22.6644C20.5745 22.6644 18.0851 20.258 18.0851 17.1112C18.0851 13.9644 20.5745 11.558 23.8298 11.558C27.0851 11.558 29.5745 13.9644 29.5745 17.1112ZM39.1489 7.85592V28.2176C39.1489 30.2538 37.4255 31.9197 35.3192 31.9197H4.68086C2.57448 31.9197 0.851074 30.2538 0.851074 28.2176V7.85592C0.851074 5.81975 2.57448 4.15379 4.68086 4.15379V2.30272H12.3404V4.15379H16.1702L18.0851 0.45166H29.5745L31.4894 4.15379H35.3192C37.4255 4.15379 39.1489 5.81975 39.1489 7.85592ZM11.383 11.558C11.383 10.0772 10.0426 8.78145 8.51065 8.78145C6.97873 8.78145 5.63831 10.0772 5.63831 11.558C5.63831 13.0389 6.97873 14.3346 8.51065 14.3346C10.0426 14.3346 11.383 13.0389 11.383 11.558ZM33.4043 17.1112C33.4043 11.9283 29.1915 7.85592 23.8298 7.85592C18.4681 7.85592 14.2553 11.9283 14.2553 17.1112C14.2553 22.2942 18.4681 26.3666 23.8298 26.3666C29.1915 26.3666 33.4043 22.2942 33.4043 17.1112Z" fill="white"/>
</svg>
