<svg width="20" height="25" viewBox="0 0 20 25" fill="none" xmlns="http://www.w3.org/2000/svg">
<path d="M17.2917 24.1111C17.9363 24.1111 18.5546 23.8624 19.0104 23.4196C19.4662 22.9768 19.7223 22.3762 19.7223 21.75V7.58333L12.4306 0.5H2.70839C2.06376 0.5 1.44554 0.748759 0.989725 1.19155C0.533908 1.63435 0.277832 2.23491 0.277832 2.86111V21.75C0.277832 22.3762 0.533908 22.9768 0.989725 23.4196C1.44554 23.8624 2.06376 24.1111 2.70839 24.1111H17.2917ZM11.2153 2.86111L17.2917 8.76389H11.2153V2.86111ZM3.92367 7.58333H7.5695V9.94445H3.92367V7.58333ZM3.92367 12.3056H16.0764V14.6667H3.92367V12.3056ZM3.92367 17.0278H16.0764V19.3889H3.92367V17.0278Z" fill="#FFC90F"/>
</svg>
