<svg width="26" height="26" viewBox="0 0 26 26" fill="none" xmlns="http://www.w3.org/2000/svg">
<path d="M8.91114 1.98224L8.41427 1.98535V2.04455C7.87194 2.14716 7.36861 2.41065 6.97294 2.80632C6.45855 3.32071 6.16756 4.01708 6.16303 4.74453H6.16302L6.16302 4.74765C6.16303 5.29533 6.32566 5.83068 6.6303 6.28581C6.93494 6.74095 7.36786 7.09538 7.87418 7.30417C8.3805 7.51296 8.93742 7.5667 9.47432 7.45859C10.0112 7.35048 10.5039 7.08538 10.89 6.6969C11.276 6.30842 11.538 5.81405 11.6428 5.27648C11.7475 4.73891 11.6903 4.18235 11.4783 3.67735C11.2664 3.17235 10.9092 2.74165 10.4522 2.43987C9.99516 2.1381 9.45881 1.97882 8.91114 1.98224ZM10.9963 7.86369C10.38 8.27549 9.65548 8.49528 8.91427 8.49528C7.92033 8.49528 6.9671 8.10044 6.26428 7.39763C5.56147 6.69481 5.16663 5.74158 5.16663 4.74764C5.16663 4.00643 5.38642 3.28186 5.79822 2.66557C6.21001 2.04927 6.79532 1.56892 7.48011 1.28527C8.1649 1.00162 8.91842 0.927408 9.6454 1.07201C10.3724 1.21662 11.0401 1.57354 11.5642 2.09766C12.0884 2.62178 12.4453 3.28954 12.5899 4.01651C12.7345 4.74349 12.6603 5.49701 12.3766 6.1818C12.093 6.86659 11.6126 7.4519 10.9963 7.86369Z" fill="#EBFFE6" stroke="#239E05"/>
<path d="M11.9801 15.7265C9.20227 17.8098 6.4245 12.2544 5.03561 11.56C3.9245 11.0044 1.79487 16.8841 0.86894 19.8933C-1.24635 24.8259 6.4245 25.449 6.4245 25.449H19.6189C19.6189 25.449 26.0096 25.449 24.48 20.5879C22.9505 15.7268 22.3967 14.3376 22.3967 14.3376C16.8412 -0.940153 14.7578 13.6432 11.9801 15.7265Z" fill="#EBFFE6" stroke="#239E05"/>
</svg>
