<svg width="21" height="21" viewBox="0 0 21 21" fill="none" xmlns="http://www.w3.org/2000/svg">
<path d="M9.375 7.29167H11.4583V5.20833H9.375M10.4167 18.75C5.82292 18.75 2.08333 15.0104 2.08333 10.4167C2.08333 5.82292 5.82292 2.08333 10.4167 2.08333C15.0104 2.08333 18.75 5.82292 18.75 10.4167C18.75 15.0104 15.0104 18.75 10.4167 18.75ZM10.4167 0C9.04873 0 7.69419 0.269435 6.43038 0.792922C5.16657 1.31641 4.01825 2.08369 3.05097 3.05097C1.09747 5.00447 0 7.65399 0 10.4167C0 13.1793 1.09747 15.8289 3.05097 17.7824C4.01825 18.7496 5.16657 19.5169 6.43038 20.0404C7.69419 20.5639 9.04873 20.8333 10.4167 20.8333C13.1793 20.8333 15.8289 19.7359 17.7824 17.7824C19.7359 15.8289 20.8333 13.1793 20.8333 10.4167C20.8333 9.04873 20.5639 7.69419 20.0404 6.43038C19.5169 5.16657 18.7496 4.01825 17.7824 3.05097C16.8151 2.08369 15.6668 1.31641 14.403 0.792922C13.1391 0.269435 11.7846 0 10.4167 0ZM9.375 15.625H11.4583V9.375H9.375V15.625Z" fill="black"/>
</svg>
