<svg width="24" height="24" viewBox="0 0 24 24" fill="none" xmlns="http://www.w3.org/2000/svg">
<g clip-path="url(#clip0_11_394)">
<path d="M21.5 4H19.3333V5.33333H21.3333V20H2.66663V5.33333H4.66663V4H2.49997C2.34413 4.0026 2.19032 4.03588 2.04735 4.09794C1.90437 4.15999 1.77501 4.24961 1.66668 4.36166C1.55834 4.47371 1.47313 4.60601 1.41593 4.751C1.35873 4.89599 1.33065 5.05083 1.3333 5.20667V20.1267C1.33065 20.2825 1.35873 20.4373 1.41593 20.5823C1.47313 20.7273 1.55834 20.8596 1.66668 20.9717C1.77501 21.0837 1.90437 21.1733 2.04735 21.2354C2.19032 21.2974 2.34413 21.3307 2.49997 21.3333H21.5C21.6558 21.3307 21.8096 21.2974 21.9526 21.2354C22.0956 21.1733 22.2249 21.0837 22.3333 20.9717C22.4416 20.8596 22.5268 20.7273 22.584 20.5823C22.6412 20.4373 22.6693 20.2825 22.6666 20.1267V5.20667C22.6693 5.05083 22.6412 4.89599 22.584 4.751C22.5268 4.60601 22.4416 4.47371 22.3333 4.36166C22.2249 4.24961 22.0956 4.15999 21.9526 4.09794C21.8096 4.03588 21.6558 4.0026 21.5 4Z" fill="#2B85FF"/>
<path d="M5.33337 9.33301H6.66671V10.6663H5.33337V9.33301Z" fill="#2B85FF"/>
<path d="M9.33337 9.33301H10.6667V10.6663H9.33337V9.33301Z" fill="#2B85FF"/>
<path d="M13.3334 9.33301H14.6667V10.6663H13.3334V9.33301Z" fill="#2B85FF"/>
<path d="M17.3334 9.33301H18.6667V10.6663H17.3334V9.33301Z" fill="#2B85FF"/>
<path d="M5.33337 12.667H6.66671V14.0003H5.33337V12.667Z" fill="#2B85FF"/>
<path d="M9.33337 12.667H10.6667V14.0003H9.33337V12.667Z" fill="#2B85FF"/>
<path d="M13.3334 12.667H14.6667V14.0003H13.3334V12.667Z" fill="#2B85FF"/>
<path d="M17.3334 12.667H18.6667V14.0003H17.3334V12.667Z" fill="#2B85FF"/>
<path d="M5.33337 16H6.66671V17.3333H5.33337V16Z" fill="#2B85FF"/>
<path d="M9.33337 16H10.6667V17.3333H9.33337V16Z" fill="#2B85FF"/>
<path d="M13.3334 16H14.6667V17.3333H13.3334V16Z" fill="#2B85FF"/>
<path d="M17.3334 16H18.6667V17.3333H17.3334V16Z" fill="#2B85FF"/>
<path d="M6.66667 6.66634C6.84348 6.66634 7.01305 6.5961 7.13807 6.47108C7.2631 6.34605 7.33333 6.17649 7.33333 5.99967V1.99967C7.33333 1.82286 7.2631 1.65329 7.13807 1.52827C7.01305 1.40325 6.84348 1.33301 6.66667 1.33301C6.48986 1.33301 6.32029 1.40325 6.19526 1.52827C6.07024 1.65329 6 1.82286 6 1.99967V5.99967C6 6.17649 6.07024 6.34605 6.19526 6.47108C6.32029 6.5961 6.48986 6.66634 6.66667 6.66634Z" fill="#2B85FF"/>
<path d="M17.3333 6.66634C17.5101 6.66634 17.6797 6.5961 17.8047 6.47108C17.9297 6.34605 18 6.17649 18 5.99967V1.99967C18 1.82286 17.9297 1.65329 17.8047 1.52827C17.6797 1.40325 17.5101 1.33301 17.3333 1.33301C17.1565 1.33301 16.9869 1.40325 16.8619 1.52827C16.7369 1.65329 16.6666 1.82286 16.6666 1.99967V5.99967C16.6666 6.17649 16.7369 6.34605 16.8619 6.47108C16.9869 6.5961 17.1565 6.66634 17.3333 6.66634Z" fill="#2B85FF"/>
<path d="M8.66663 4H15.3333V5.33333H8.66663V4Z" fill="#2B85FF"/>
</g>
<defs>
<clipPath id="clip0_11_394">
<rect width="24" height="24" fill="white"/>
</clipPath>
</defs>
</svg>
