<svg width="60" height="68" viewBox="0 0 60 68" fill="none" xmlns="http://www.w3.org/2000/svg">
<path d="M1 67V62.875C1 55.2169 4.05535 47.8724 9.4939 42.4573C14.9325 37.0422 22.3087 34 30 34M30 34C37.6913 34 45.0675 37.0422 50.5061 42.4573C55.9447 47.8724 59 55.2169 59 62.875V67M30 34C34.395 34 38.61 32.2616 41.7178 29.1673C44.8255 26.0729 46.5714 21.8761 46.5714 17.5C46.5714 13.1239 44.8255 8.92709 41.7178 5.83274C38.61 2.73839 34.395 1 30 1C25.605 1 21.39 2.73839 18.2822 5.83274C15.1745 8.92709 13.4286 13.1239 13.4286 17.5C13.4286 21.8761 15.1745 26.0729 18.2822 29.1673C21.39 32.2616 25.605 34 30 34Z" stroke="black" stroke-width="1.5" stroke-linecap="round" stroke-linejoin="round"/>
</svg>
