<svg width="36" height="28" viewBox="0 0 36 28" fill="none" xmlns="http://www.w3.org/2000/svg">
<path d="M25.7136 26.9941H20.2871V20.9958H24.4303H26.5171L25.2097 19.3693L18.7807 11.371L18.0013 10.4013L17.2219 11.371L10.7928 19.3693L9.48546 20.9958H11.5723H15.7155V26.9941H10.5882H10.2865V27.0003C10.1921 27.0001 10.0856 26.9987 9.97904 26.9972C9.86197 26.9957 9.7448 26.9941 9.64355 26.9941C7.36302 26.9941 5.16827 26.0552 3.54428 24.3715C1.9191 22.6866 1 20.394 1 17.9962C1 13.3587 4.37721 9.61739 8.66144 9.1059L9.39267 9.0186L9.5263 8.2944C9.90667 6.23296 10.9668 4.38048 12.5157 3.05189C14.0637 1.72413 16.0036 1.00141 18.0013 1C19.9994 1.0013 21.9397 1.72394 23.4881 3.0517C25.0374 4.3803 26.098 6.23289 26.4789 8.2946L26.6126 9.01862L27.3437 9.1059C31.6272 9.6173 35 13.358 35 17.9962C35 20.394 34.0809 22.6866 32.4557 24.3715C30.8317 26.0552 28.637 26.9941 26.3565 26.9941C26.2491 26.9941 26.176 26.9972 26.1367 26.9988C26.1283 26.9992 26.1214 26.9995 26.1161 26.9996L26.1141 26.9997C26.103 27.0001 26.0829 27.0009 26.002 26.9959L25.9716 26.9941H25.9412H25.7136Z" stroke="#929292" stroke-width="2"/>
</svg>
