<svg width="36" height="23" viewBox="0 0 36 23" fill="none" xmlns="http://www.w3.org/2000/svg">
<path d="M8.94085 23C6.72111 23 4.59228 22.1115 3.02268 20.5299C1.45308 18.9484 0.571289 16.8033 0.571289 14.5667C0.571289 12.33 1.45308 10.185 3.02268 8.6034C4.59228 7.02184 6.72111 6.13333 8.94085 6.13333C10.4626 2.53 13.9626 0 18.0713 0C23.2909 0 27.5669 4.07867 27.9626 9.246L28.7235 9.2C32.5278 9.2 35.5713 12.2667 35.5713 16.1C35.5713 19.9333 32.5278 23 28.7235 23H8.94085ZM8.94085 7.66667C5.13651 7.66667 2.09303 10.7333 2.09303 14.5667C2.09303 18.4 5.13651 21.4667 8.94085 21.4667H28.7235C30.136 21.4667 31.4907 20.9013 32.4896 19.8948C33.4884 18.8884 34.0495 17.5233 34.0495 16.1C34.0495 14.6767 33.4884 13.3116 32.4896 12.3052C31.4907 11.2987 30.136 10.7333 28.7235 10.7333C27.8713 10.7333 27.0496 10.9327 26.3343 11.3007C26.4409 10.8713 26.4409 10.4267 26.4409 9.96667C26.4409 7.73001 25.5591 5.58496 23.9895 4.0034C22.4199 2.42184 20.291 1.53333 18.0713 1.53333C16.2355 1.53436 14.4507 2.14246 12.991 3.26428C11.5313 4.3861 10.4773 5.95964 9.99085 7.74333L8.94085 7.66667Z" fill="#929292"/>
</svg>
