<svg width="26" height="25" viewBox="0 0 26 25" fill="none" xmlns="http://www.w3.org/2000/svg">
<path d="M24.5 22.5397V10.127C24.5 9.90028 24.448 9.67668 24.3482 9.47391C24.2484 9.27114 24.1035 9.09475 23.925 8.95873L13.8625 1.29206C13.6137 1.10248 13.311 1 13 1C12.689 1 12.3863 1.10248 12.1375 1.29206L2.075 8.95873C1.89647 9.09475 1.75156 9.27114 1.65176 9.47391C1.55196 9.67668 1.5 9.90028 1.5 10.127V22.5397C1.5 22.927 1.65145 23.2984 1.92103 23.5723C2.19062 23.8461 2.55625 24 2.9375 24H8.6875C9.06875 24 9.43438 23.8461 9.70397 23.5723C9.97355 23.2984 10.125 22.927 10.125 22.5397V18.1587C10.125 17.7714 10.2765 17.4 10.546 17.1261C10.8156 16.8523 11.1813 16.6984 11.5625 16.6984H14.4375C14.8187 16.6984 15.1844 16.8523 15.454 17.1261C15.7235 17.4 15.875 17.7714 15.875 18.1587V22.5397C15.875 22.927 16.0265 23.2984 16.296 23.5723C16.5656 23.8461 16.9313 24 17.3125 24H23.0625C23.4437 24 23.8094 23.8461 24.079 23.5723C24.3486 23.2984 24.5 22.927 24.5 22.5397Z" stroke="#2B85FF" stroke-width="2" stroke-linecap="round" stroke-linejoin="round"/>
</svg>
