<svg width="28" height="28" viewBox="0 0 28 28" fill="none" xmlns="http://www.w3.org/2000/svg">
<path d="M13.8333 1.33333H12.8333H10.5C10.4558 1.33333 10.4134 1.31577 10.3821 1.28452L9.67504 1.99162L10.3821 1.28452C10.3509 1.25326 10.3333 1.21087 10.3333 1.16667C10.3333 1.12246 10.3509 1.08007 10.3821 1.04882L9.67808 0.344744L10.3821 1.04882C10.4134 1.01756 10.4558 1 10.5 1H17.5C17.5442 1 17.5866 1.01756 17.6179 1.04882C17.6491 1.08007 17.6667 1.12246 17.6667 1.16667C17.6667 1.21087 17.6491 1.25326 17.6179 1.28452C17.5866 1.31577 17.5442 1.33333 17.5 1.33333H15.1667H14.1667V2.33333V25.6667V26.6667H15.1667H17.5C17.5442 26.6667 17.5866 26.6842 17.6179 26.7155C17.6491 26.7467 17.6667 26.7891 17.6667 26.8333C17.6667 26.8775 17.6491 26.9199 17.6179 26.9512C17.5866 26.9824 17.5442 27 17.5 27H10.5C10.4558 27 10.4134 26.9824 10.3821 26.9512C10.3509 26.9199 10.3333 26.8775 10.3333 26.8333C10.3333 26.7891 10.3509 26.7467 10.3821 26.7155C10.4134 26.6842 10.4558 26.6667 10.5 26.6667H12.8333H13.8333V25.6667V2.33333V1.33333ZM4.66667 5.66667H9.5V6H4.66667C3.78261 6 2.93476 6.35119 2.30964 6.97631C1.68452 7.60143 1.33333 8.44928 1.33333 9.33333V18.6597C1.33333 19.5437 1.68452 20.3916 2.30964 21.0167C2.93476 21.6418 3.78261 21.993 4.66667 21.993H9.5V22.3263H4.66667C3.69421 22.3263 2.76157 21.94 2.07394 21.2524C1.38631 20.5648 1 19.6321 1 18.6597V9.33333C1 8.36087 1.38631 7.42824 2.07394 6.74061C2.76157 6.05297 3.69421 5.66667 4.66667 5.66667ZM18.5 22.3263V21.993H23.3333C24.2174 21.993 25.0652 21.6418 25.6904 21.0167C26.3155 20.3916 26.6667 19.5437 26.6667 18.6597V9.33333C26.6667 8.44928 26.3155 7.60143 25.6904 6.97631C25.0652 6.35119 24.2174 6 23.3333 6H18.5V5.66667H23.3333C24.3058 5.66667 25.2384 6.05297 25.9261 6.74061C26.6137 7.42824 27 8.36087 27 9.33333V18.6597C27 19.6321 26.6137 20.5648 25.9261 21.2524C25.2384 21.94 24.3058 22.3263 23.3333 22.3263H18.5Z" stroke="#929292" stroke-width="2"/>
</svg>
