<svg width="30" height="26" viewBox="0 0 30 26" fill="none" xmlns="http://www.w3.org/2000/svg">
<path d="M8.77778 5.5H4.11111C3.28599 5.5 2.49467 5.81607 1.91122 6.37868C1.32778 6.94129 1 7.70435 1 8.5V22C1 22.7956 1.32778 23.5587 1.91122 24.1213C2.49467 24.6839 3.28599 25 4.11111 25H25.8889C26.714 25 27.5053 24.6839 28.0888 24.1213C28.6722 23.5587 29 22.7956 29 22V8.5C29 7.70435 28.6722 6.94129 28.0888 6.37868C27.5053 5.81607 26.714 5.5 25.8889 5.5H21.2222M19.6667 11.5L15 16M15 16L10.3333 11.5M15 16V1" stroke="#929292" stroke-width="2" stroke-linecap="round" stroke-linejoin="round"/>
</svg>
