<svg width="24" height="28" viewBox="0 0 24 28" fill="none" xmlns="http://www.w3.org/2000/svg">
<path d="M8.22222 13.9998C8.22222 14.9575 7.84177 15.876 7.16455 16.5532C6.48734 17.2304 5.56884 17.6109 4.61111 17.6109C3.65338 17.6109 2.73488 17.2304 2.05767 16.5532C1.38046 15.876 1 14.9575 1 13.9998C1 13.0421 1.38046 12.1236 2.05767 11.4463C2.73488 10.7691 3.65338 10.3887 4.61111 10.3887C5.56884 10.3887 6.48734 10.7691 7.16455 11.4463C7.84177 12.1236 8.22222 13.0421 8.22222 13.9998Z" stroke="#929292" stroke-width="2"/>
<path d="M15.4445 6.05566L8.22229 11.1112M15.4445 21.9445L8.22229 16.889" stroke="#929292" stroke-width="2" stroke-linecap="round"/>
<path d="M22.6667 23.3889C22.6667 24.3466 22.2862 25.2651 21.609 25.9423C20.9318 26.6195 20.0133 27 19.0556 27C18.0978 27 17.1793 26.6195 16.5021 25.9423C15.8249 25.2651 15.4445 24.3466 15.4445 23.3889C15.4445 22.4312 15.8249 21.5127 16.5021 20.8354C17.1793 20.1582 18.0978 19.7778 19.0556 19.7778C20.0133 19.7778 20.9318 20.1582 21.609 20.8354C22.2862 21.5127 22.6667 22.4312 22.6667 23.3889ZM22.6667 4.61111C22.6667 5.56884 22.2862 6.48734 21.609 7.16455C20.9318 7.84177 20.0133 8.22222 19.0556 8.22222C18.0978 8.22222 17.1793 7.84177 16.5021 7.16455C15.8249 6.48734 15.4445 5.56884 15.4445 4.61111C15.4445 3.65338 15.8249 2.73488 16.5021 2.05767C17.1793 1.38046 18.0978 1 19.0556 1C20.0133 1 20.9318 1.38046 21.609 2.05767C22.2862 2.73488 22.6667 3.65338 22.6667 4.61111Z" stroke="#929292" stroke-width="2"/>
</svg>
