<svg width="22" height="26" viewBox="0 0 22 26" fill="none" xmlns="http://www.w3.org/2000/svg">
<mask id="path-1-inside-1_296_1337" fill="white">
<path d="M0 3.66668V5.50002H1.83334V23.8334C1.83334 24.3196 2.02649 24.786 2.37031 25.1298C2.71413 25.4736 3.18045 25.6667 3.66668 25.6667H18.3334C18.8196 25.6667 19.2859 25.4736 19.6298 25.1298C19.9736 24.786 20.1667 24.3196 20.1667 23.8334V5.50002H22.0001V3.66668H0ZM3.66668 23.8334V5.50002H18.3334V23.8334H3.66668ZM7.33336 0H14.6667V1.83334H7.33336V0Z"/>
</mask>
<path d="M0 3.66668V5.50002H1.83334V23.8334C1.83334 24.3196 2.02649 24.786 2.37031 25.1298C2.71413 25.4736 3.18045 25.6667 3.66668 25.6667H18.3334C18.8196 25.6667 19.2859 25.4736 19.6298 25.1298C19.9736 24.786 20.1667 24.3196 20.1667 23.8334V5.50002H22.0001V3.66668H0ZM3.66668 23.8334V5.50002H18.3334V23.8334H3.66668ZM7.33336 0H14.6667V1.83334H7.33336V0Z" fill="#929292"/>
<path d="M0 3.66668V1.66668H-2V3.66668H0ZM0 5.50002H-2V7.50002H0V5.50002ZM1.83334 5.50002H3.83334V3.50002H1.83334V5.50002ZM1.83334 23.8334H-0.166661H1.83334ZM20.1667 5.50002V3.50002H18.1667V5.50002H20.1667ZM22.0001 5.50002V7.50002H24.0001V5.50002H22.0001ZM22.0001 3.66668H24.0001V1.66668H22.0001V3.66668ZM3.66668 23.8334H1.66668V25.8334H3.66668V23.8334ZM3.66668 5.50002V3.50002H1.66668V5.50002H3.66668ZM18.3334 5.50002H20.3334V3.50002H18.3334V5.50002ZM18.3334 23.8334V25.8334H20.3334V23.8334H18.3334ZM7.33336 0V-2H5.33336V0H7.33336ZM14.6667 0H16.6667V-2H14.6667V0ZM14.6667 1.83334V3.83334H16.6667V1.83334H14.6667ZM7.33336 1.83334H5.33336V3.83334H7.33336V1.83334ZM-2 3.66668V5.50002H2V3.66668H-2ZM0 7.50002H1.83334V3.50002H0V7.50002ZM-0.166661 5.50002V23.8334H3.83334V5.50002H-0.166661ZM-0.166661 23.8334C-0.166661 24.8501 0.237208 25.8251 0.956098 26.544L3.78453 23.7156C3.81578 23.7468 3.83334 23.7892 3.83334 23.8334H-0.166661ZM0.956098 26.544C1.67499 27.2629 2.65001 27.6667 3.66668 27.6667V23.6667C3.71088 23.6667 3.75327 23.6843 3.78453 23.7156L0.956098 26.544ZM3.66668 27.6667H18.3334V23.6667H3.66668V27.6667ZM18.3334 27.6667C19.3501 27.6667 20.3251 27.2629 21.044 26.544L18.2155 23.7156C18.2468 23.6843 18.2892 23.6667 18.3334 23.6667V27.6667ZM21.044 26.544C21.7629 25.8251 22.1667 24.8501 22.1667 23.8334H18.1667C18.1667 23.7892 18.1843 23.7468 18.2155 23.7156L21.044 26.544ZM22.1667 23.8334V5.50002H18.1667V23.8334H22.1667ZM20.1667 7.50002H22.0001V3.50002H20.1667V7.50002ZM24.0001 5.50002V3.66668H20.0001V5.50002H24.0001ZM22.0001 1.66668H0V5.66668H22.0001V1.66668ZM5.66668 23.8334V5.50002H1.66668V23.8334H5.66668ZM3.66668 7.50002H18.3334V3.50002H3.66668V7.50002ZM16.3334 5.50002V23.8334H20.3334V5.50002H16.3334ZM18.3334 21.8334H3.66668V25.8334H18.3334V21.8334ZM7.33336 2H14.6667V-2H7.33336V2ZM12.6667 0V1.83334H16.6667V0H12.6667ZM14.6667 -0.166661H7.33336V3.83334H14.6667V-0.166661ZM9.33336 1.83334V0H5.33336V1.83334H9.33336Z" fill="#929292" mask="url(#path-1-inside-1_296_1337)"/>
</svg>
